<?xml version="1.0" standalone="no"?>
<!DOCTYPE svg PUBLIC "-//W3C//DTD SVG 20010904//EN"
 "http://www.w3.org/TR/2001/REC-SVG-20010904/DTD/svg10.dtd">
<svg version="1.0" xmlns="http://www.w3.org/2000/svg"
 width="367.000000pt" height="367.000000pt" viewBox="0 0 367.000000 367.000000"
 preserveAspectRatio="xMidYMid meet">

<g transform="translate(0.000000,367.000000) scale(0.100000,-0.100000)"
fill="#000000" stroke="none">
<path d="M2246 3646 c-3 -11 -1 -25 4 -31 6 -7 8 -14 5 -17 -2 -2 21 -3 53 -2
l57 1 -35 -15 c-19 -8 -44 -15 -54 -16 -27 -1 -33 -26 -7 -26 13 0 21 -7 22
-17 0 -11 3 -13 6 -5 12 31 75 1 78 -39 1 -16 8 -24 20 -24 10 0 22 -9 26 -20
4 -11 8 -16 8 -11 1 5 8 3 17 -5 13 -10 17 -10 25 2 5 8 9 21 9 29 0 8 3 26 7
39 4 15 2 22 -4 18 -15 -9 -3 45 14 61 17 18 17 32 -2 32 -18 0 -19 12 -3 28
9 9 9 12 -1 12 -8 0 -11 6 -7 16 5 13 -9 15 -114 12 -108 -3 -119 -5 -124 -22z"/>
<path d="M2510 3663 c0 -11 60 -27 68 -18 8 8 -2 14 -36 21 -19 4 -32 2 -32
-3z"/>
<path d="M2836 3644 c-16 -22 -16 -29 -6 -49 7 -13 10 -30 7 -39 -4 -10 4 -18
24 -25 26 -9 29 -13 19 -31 -12 -23 -40 -27 -40 -5 0 8 -7 15 -15 15 -9 0 -12
-6 -9 -15 4 -9 0 -15 -10 -15 -10 0 -16 9 -16 25 0 14 -7 28 -15 31 -20 8 -19
31 1 42 9 5 14 14 10 20 -4 8 -24 -1 -55 -23 -53 -38 -66 -43 -57 -20 3 10 -1
15 -13 15 -10 0 -22 -7 -25 -16 -10 -25 -7 -34 8 -28 8 3 23 1 32 -4 12 -7 23
-6 35 1 13 8 21 7 34 -6 9 -10 21 -15 26 -12 14 9 11 -5 -5 -21 -19 -18 -33
-18 -44 2 -7 12 -21 15 -61 13 -35 -3 -50 0 -47 7 2 6 -6 17 -19 24 -20 11
-28 10 -50 -4 -24 -16 -25 -19 -12 -34 13 -14 14 -25 4 -68 -7 -28 -18 -58
-26 -68 -12 -14 -11 -16 8 -16 12 0 21 -6 21 -16 0 -23 43 -14 50 11 3 11 10
21 16 22 7 1 10 -6 7 -16 -7 -26 9 -33 47 -20 24 9 34 9 40 0 9 -16 60 -17 89
-1 16 8 42 10 78 6 42 -5 53 -3 53 8 0 9 19 19 55 27 34 7 56 18 58 28 3 10 5
8 6 -6 1 -31 51 -34 51 -3 0 26 13 25 25 -2 16 -34 34 -33 41 1 7 34 24 42 24
11 0 -24 6 -25 26 -5 21 21 29 19 48 -10 9 -14 21 -23 26 -20 5 3 15 -4 24
-16 16 -24 46 -20 46 6 0 21 19 19 27 -2 13 -36 59 -47 50 -13 -6 23 12 27 32
8 10 -11 15 -9 27 6 8 11 14 27 14 36 0 20 43 45 64 37 8 -3 16 -1 19 6 2 8
15 7 45 -5 l42 -16 0 30 c0 27 -2 30 -26 24 -17 -5 -24 -3 -23 6 3 21 -12 48
-28 48 -8 0 -12 4 -8 9 3 5 1 12 -5 16 -14 9 -13 68 2 83 6 6 8 15 4 19 -5 5
-15 -2 -23 -14 -16 -24 -43 -31 -43 -12 0 6 -12 9 -28 8 -15 -2 -33 0 -40 5
-7 4 -29 5 -48 1 -22 -4 -41 -2 -49 5 -19 16 -35 4 -35 -25 0 -18 -4 -22 -20
-18 -11 3 -20 14 -20 24 0 11 -4 19 -9 19 -14 0 -23 -51 -11 -65 7 -8 7 -16 2
-19 -6 -3 -12 3 -15 15 -4 15 -12 19 -33 16 -37 -5 -74 28 -74 65 0 22 -5 28
-21 28 -12 0 -28 -8 -34 -17 -12 -16 -15 -16 -32 -2 -11 11 -39 17 -75 18 -58
2 -58 1 -58 -28 0 -16 6 -32 13 -34 6 -3 -2 -6 -20 -6 -25 -1 -31 -5 -27 -16
4 -8 1 -15 -6 -15 -6 0 -8 5 -5 10 3 6 -1 13 -9 16 -22 9 -20 31 4 44 11 6 18
15 15 21 -10 16 -29 9 -49 -17z m180 -9 c-3 -10 1 -15 12 -15 18 0 45 -34 35
-44 -10 -10 -25 -7 -18 4 3 5 -5 12 -19 16 -33 8 -45 54 -13 54 5 0 7 -7 3
-15z m114 -56 c0 -11 -5 -19 -12 -17 -17 6 -19 38 -2 38 8 0 14 -9 14 -21z
m93 -31 c12 -10 14 -17 7 -28 -9 -13 -12 -13 -21 3 -8 14 -18 17 -40 12 -22
-5 -29 -3 -29 9 0 20 58 22 83 4z m-125 -20 c-3 -14 -18 -28 -30 -28 -13 0 -9
28 5 33 21 9 27 7 25 -5z m52 -43 c0 -14 -4 -25 -10 -25 -11 0 -14 33 -3 43
11 11 13 8 13 -18z m130 5 c0 -3 -5 -11 -12 -18 -15 -15 -42 -16 -32 0 5 8 0
9 -14 6 -15 -4 -22 -2 -22 8 0 10 12 13 40 12 22 -1 40 -4 40 -8z m-200 -9 c0
-6 -4 -13 -10 -16 -5 -3 -10 1 -10 9 0 9 5 16 10 16 6 0 10 -4 10 -9z m507
-27 c-3 -3 -12 -4 -19 -1 -8 3 -5 6 6 6 11 1 17 -2 13 -5z m-842 -84 c-3 -5
-10 -10 -16 -10 -5 0 -9 5 -9 10 0 6 7 10 16 10 8 0 12 -4 9 -10z"/>
<path d="M3280 3657 c0 -17 26 -42 32 -30 2 4 4 15 4 23 -1 19 -36 26 -36 7z"/>
<path d="M3600 3655 c0 -8 11 -22 25 -31 18 -12 25 -25 25 -50 0 -18 5 -36 10
-39 6 -4 10 20 10 64 l0 71 -35 0 c-24 0 -35 -5 -35 -15z"/>
<path d="M2796 3574 c-9 -23 8 -38 23 -21 9 11 8 17 -3 26 -11 9 -15 8 -20 -5z"/>
<path d="M2195 3510 c4 -6 11 -8 16 -5 14 9 11 15 -7 15 -8 0 -12 -5 -9 -10z"/>
<path d="M2302 3468 c2 -13 8 -23 13 -23 6 0 11 10 13 23 2 15 -2 22 -13 22
-11 0 -15 -7 -13 -22z"/>
<path d="M2218 3453 c6 -2 18 -2 25 0 6 3 1 5 -13 5 -14 0 -19 -2 -12 -5z"/>
<path d="M2340 3420 c0 -5 5 -10 10 -10 6 0 10 5 10 10 0 6 -4 10 -10 10 -5 0
-10 -4 -10 -10z"/>
<path d="M2446 3333 c-11 -11 -6 -23 9 -23 8 0 15 4 15 9 0 13 -16 22 -24 14z"/>
<path d="M3470 3291 c0 -30 -13 -41 -25 -21 -7 12 -95 13 -113 1 -10 -6 -4
-12 20 -22 18 -7 40 -14 48 -14 8 0 16 -9 18 -20 6 -32 24 -47 48 -41 13 4 26
2 29 -4 3 -5 17 -10 31 -10 21 0 24 4 19 20 -6 18 -4 19 21 10 20 -8 29 -8 34
1 12 18 43 6 57 -21 12 -24 13 -22 13 23 0 44 -2 47 -26 47 -14 0 -32 6 -39
14 -10 9 -28 12 -59 9 -43 -5 -45 -4 -48 23 -4 39 -28 44 -28 5z"/>
<path d="M2580 3279 c0 -12 7 -14 30 -11 17 2 30 9 30 16 0 6 -13 11 -30 11
-21 0 -30 -5 -30 -16z"/>
</g>
</svg>
